 <svg  version="1.0" xmlns="http://www.w3.org/2000/svg"  width="300.000000pt" height="90.000000pt" viewBox="0 0 300.000000 90.000000"  preserveAspectRatio="xMidYMid meet">  <g transform="translate(0.000000,90.000000) scale(0.100000,-0.100000)" fill="#f5f0f0" stroke="none"> <path d="M293 769 c-48 -23 -89 -67 -110 -116 -19 -47 -16 -132 5 -175 20 -39 113 -157 124 -157 4 -1 10 15 14 34 6 36 7 34 -59 118 -101 128 44 308 196 243 65 -28 117 -115 102 -174 -11 -46 -53 -90 -124 -132 -70 -40 -121 -90 -121 -116 0 -11 17 -14 75 -14 71 0 75 1 89 27 8 16 36 53 62 83 58 68 83 122 84 178 0 81 -53 162 -132 203 -52 27 -149 26 -205 -2z m177 -408 c0 -17 -51 -50 -67 -44 -13 5 -11 11 13 30 30 24 54 30 54 14z"/> <path d="M755 470 l0 -130 33 0 32 0 0 130 0 130 -32 0 -33 0 0 -130z"/> <path d="M880 470 l0 -130 104 0 104 0 0 25 c0 24 -2 25 -74 25 l-74 0 0 30 0 30 64 0 c63 0 63 0 58 26 -5 26 -6 26 -63 20 l-59 -7 0 31 0 30 70 0 c68 0 70 1 70 25 0 25 0 25 -100 25 l-100 0 0 -130z"/> <path d="M1140 470 l0 -132 89 4 c105 4 138 21 160 85 20 56 3 113 -42 145 -26 19 -48 24 -119 26 l-88 4 0 -132z m175 55 c56 -55 15 -135 -70 -135 l-45 0 0 80 0 80 45 0 c35 0 52 -6 70 -25z"/> <path d="M1496 581 c-39 -26 -55 -57 -56 -109 0 -85 48 -132 135 -132 45 0 105 22 105 39 0 4 -8 15 -19 25 -16 15 -19 15 -31 1 -14 -17 -72 -20 -100 -5 -27 14 -41 64 -28 100 5 17 18 35 28 40 28 15 86 12 100 -5 12 -14 15 -14 31 1 26 23 24 31 -11 49 -41 21 -118 19 -154 -4z"/> <path d="M1834 470 c0 -118 1 -130 17 -130 16 0 19 11 21 92 l3 93 44 -78 c25 -42 50 -76 55 -74 6 2 29 36 52 75 22 40 44 75 47 79 4 3 4 -37 0 -91 -6 -94 -5 -96 15 -96 21 0 22 4 22 130 0 161 -8 165 -81 43 -28 -49 -52 -89 -54 -91 -1 -1 -26 38 -56 88 -75 126 -84 122 -85 -40z"/> <path d="M2209 561 c-35 -35 -39 -44 -39 -91 0 -47 4 -56 39 -91 34 -34 44 -39 85 -39 47 0 106 22 106 40 0 18 -20 21 -42 6 -36 -25 -83 -20 -120 13 -27 24 -33 36 -33 71 0 35 6 47 33 71 37 33 84 38 120 13 22 -15 42 -12 42 6 0 18 -59 40 -106 40 -41 0 -51 -5 -85 -39z"/> <path d="M2450 470 l0 -130 95 0 c78 0 95 3 95 15 0 12 -15 15 -75 15 l-75 0 0 46 0 46 65 -4 c57 -3 65 -2 65 14 0 15 -9 18 -65 18 l-65 0 0 40 0 40 75 0 c60 0 75 3 75 15 0 12 -17 15 -95 15 l-95 0 0 -130z"/> <path d="M2660 585 c0 -11 12 -15 45 -15 l45 0 0 -115 c0 -108 1 -115 20 -115 19 0 20 7 20 115 l0 115 45 0 c33 0 45 4 45 15 0 12 -19 15 -110 15 -91 0 -110 -3 -110 -15z"/> <path d="M330 245 c0 -13 12 -15 67 -13 42 2 68 8 71 16 3 9 -15 12 -67 12 -57 0 -71 -3 -71 -15z"/> <path d="M330 205 c0 -12 14 -15 71 -15 52 0 70 3 67 13 -3 7 -29 13 -71 15 -55 2 -67 0 -67 -13z"/> <path d="M365 160 c3 -5 17 -10 30 -10 13 0 27 5 30 10 4 6 -8 10 -30 10 -22 0 -34 -4 -30 -10z"/> </g> </svg> 